<svg width="100" height="100" viewBox="0 0 100 100" fill="none" xmlns="http://www.w3.org/2000/svg">
<circle cx="50" cy="50" r="50" fill="#E5F2FF"/>
<path d="M39.1663 71.6666C37.9747 71.6666 36.9549 71.2427 36.107 70.3948C35.2591 69.5469 34.8345 68.5264 34.833 67.3333V50C34.833 46.9305 35.6368 44.1861 37.2445 41.7666C38.8522 39.3472 40.9372 37.5416 43.4997 36.35V34.8333C43.4997 33.0278 44.1316 31.493 45.3955 30.2291C46.6594 28.9653 48.1941 28.3333 49.9997 28.3333C51.8052 28.3333 53.34 28.9653 54.6038 30.2291C55.8677 31.493 56.4997 33.0278 56.4997 34.8333V36.35C59.0636 37.5416 61.1493 39.3472 62.757 41.7666C64.3647 44.1861 65.1678 46.9305 65.1663 50V67.3333C65.1663 68.525 64.7424 69.5455 63.8945 70.3948C63.0466 71.2441 62.0261 71.6681 60.833 71.6666H39.1663ZM39.1663 67.3333H60.833V50C60.833 47.0028 59.7764 44.4483 57.6632 42.3365C55.55 40.2247 52.9955 39.1681 49.9997 39.1666C47.0039 39.1652 44.4494 40.2218 42.3362 42.3365C40.223 44.4511 39.1663 47.0056 39.1663 50V67.3333ZM56.4997 58.6666C57.1136 58.6666 57.6285 58.4586 58.0445 58.0426C58.4605 57.6266 58.6678 57.1124 58.6663 56.5V50H41.333V54.3333H54.333V56.5C54.333 57.1139 54.541 57.6288 54.957 58.0448C55.373 58.4608 55.8872 58.6681 56.4997 58.6666ZM47.833 35.05C48.2302 34.9778 48.5913 34.9236 48.9163 34.8875C49.2413 34.8514 49.6025 34.8333 49.9997 34.8333C50.3969 34.8333 50.758 34.8514 51.083 34.8875C51.408 34.9236 51.7691 34.9778 52.1663 35.05V34.8333C52.1663 34.2194 51.9583 33.7052 51.5423 33.2906C51.1263 32.8761 50.6121 32.6681 49.9997 32.6666C49.3872 32.6652 48.873 32.8732 48.457 33.2906C48.041 33.7081 47.833 34.2223 47.833 34.8333V35.05Z" fill="black"/>
</svg>
