<svg width="100" height="100" viewBox="0 0 100 100" fill="none" xmlns="http://www.w3.org/2000/svg">
<circle cx="50" cy="50" r="50" fill="#E5F2FF"/>
<path d="M52.1663 61.9167L59.7497 54.3334C60.1469 53.9361 60.4629 53.4667 60.6976 52.925C60.9323 52.3834 61.0497 51.8056 61.0497 51.1917C61.0497 49.9639 60.6163 48.9167 59.7497 48.05C58.883 47.1834 57.8358 46.75 56.608 46.75C55.9219 46.75 55.2448 46.9487 54.5768 47.3459C53.9087 47.7431 53.1052 48.4111 52.1663 49.35C51.083 48.3389 50.2344 47.6528 49.6205 47.2917C49.0066 46.9306 48.3747 46.75 47.7247 46.75C46.4969 46.75 45.4497 47.1834 44.583 48.05C43.7163 48.9167 43.283 49.9639 43.283 51.1917C43.283 51.8056 43.4004 52.3834 43.6351 52.925C43.8698 53.4667 44.1858 53.9361 44.583 54.3334L52.1663 61.9167ZM70.3663 54.875L54.8747 70.3667C54.4413 70.8 53.9538 71.125 53.4122 71.3417C52.8705 71.5584 52.3288 71.6667 51.7872 71.6667C51.2455 71.6667 50.7038 71.5584 50.1622 71.3417C49.6205 71.125 49.133 70.8 48.6997 70.3667L29.5788 51.2459C29.1816 50.8486 28.8747 50.3882 28.658 49.8646C28.4413 49.341 28.333 48.7903 28.333 48.2125V32.6667C28.333 31.475 28.7573 30.4549 29.6059 29.6063C30.4545 28.7577 31.4747 28.3334 32.6663 28.3334H48.2122C48.79 28.3334 49.3497 28.4507 49.8913 28.6855C50.433 28.9202 50.9025 29.2362 51.2997 29.6334L70.3663 48.7542C70.7997 49.1875 71.1156 49.675 71.3143 50.2167C71.5129 50.7584 71.6122 51.3 71.6122 51.8417C71.6122 52.3834 71.5129 52.916 71.3143 53.4396C71.1156 53.9632 70.7997 54.4417 70.3663 54.875ZM51.7872 67.3334L67.2788 51.8417L48.158 32.6667H32.6663V48.1584L51.7872 67.3334ZM38.083 41.3334C38.9858 41.3334 39.7531 41.0174 40.3851 40.3855C41.017 39.7535 41.333 38.9862 41.333 38.0834C41.333 37.1806 41.017 36.4132 40.3851 35.7813C39.7531 35.1493 38.9858 34.8334 38.083 34.8334C37.1802 34.8334 36.4129 35.1493 35.7809 35.7813C35.149 36.4132 34.833 37.1806 34.833 38.0834C34.833 38.9862 35.149 39.7535 35.7809 40.3855C36.4129 41.0174 37.1802 41.3334 38.083 41.3334Z" fill="black"/>
</svg>
