<svg width="100" height="100" viewBox="0 0 100 100" fill="none" xmlns="http://www.w3.org/2000/svg">
<circle cx="50" cy="50" r="50" fill="#E5F2FF"/>
<path d="M62.4305 37.5698L70.5837 29.4166M62.4305 37.5698C61.4772 36.6165 62.0968 32.7121 62.3438 30.5M62.4305 37.5698C63.3838 38.5231 67.2882 37.9035 69.5003 37.6565M37.5702 62.4301L29.417 70.5833M37.5702 62.4301C36.6168 61.4768 32.7125 62.0965 30.5003 62.3435M37.5702 62.4301C38.5235 63.3835 37.9038 67.2878 37.6568 69.5M62.4305 62.4301L70.5837 70.5833M62.4305 62.4301C63.3838 61.4768 67.2882 62.0965 69.5003 62.3435M62.4305 62.4301C61.4772 63.3835 62.0968 67.2878 62.3438 69.5M37.5702 37.5698L29.417 29.4166M37.5702 37.5698C38.5235 36.6165 37.9038 32.7121 37.6568 30.5M37.5702 37.5698C36.6168 38.5231 32.7125 37.9035 30.5003 37.6565M50.0003 39.1666C47.1271 39.1666 44.3716 40.308 42.34 42.3396C40.3084 44.3713 39.167 47.1268 39.167 50C39.167 52.8731 40.3084 55.6286 42.34 57.6603C44.3716 59.6919 47.1271 60.8333 50.0003 60.8333C52.8735 60.8333 55.629 59.6919 57.6606 57.6603C59.6923 55.6286 60.8337 52.8731 60.8337 50C60.8337 47.1268 59.6923 44.3713 57.6606 42.3396C55.629 40.308 52.8735 39.1666 50.0003 39.1666Z" stroke="black" stroke-width="3" stroke-linecap="round" stroke-linejoin="round"/>
</svg>
