<svg width="100" height="100" viewBox="0 0 100 100" fill="none" xmlns="http://www.w3.org/2000/svg">
<circle cx="50" cy="50" r="50" fill="#E5F2FF"/>
<path d="M50.0003 58.6666C52.7087 58.6666 55.0107 57.7187 56.9066 55.8229C58.8024 53.927 59.7503 51.625 59.7503 48.9166C59.7503 46.2083 58.8024 43.9062 56.9066 42.0104C55.0107 40.1145 52.7087 39.1666 50.0003 39.1666C47.292 39.1666 44.9899 40.1145 43.0941 42.0104C41.1982 43.9062 40.2503 46.2083 40.2503 48.9166C40.2503 51.625 41.1982 53.927 43.0941 55.8229C44.9899 57.7187 47.292 58.6666 50.0003 58.6666ZM50.0003 54.7666C48.3753 54.7666 46.9941 54.1979 45.8566 53.0604C44.7191 51.9229 44.1503 50.5416 44.1503 48.9166C44.1503 47.2916 44.7191 45.9104 45.8566 44.7729C46.9941 43.6354 48.3753 43.0666 50.0003 43.0666C51.6253 43.0666 53.0066 43.6354 54.1441 44.7729C55.2816 45.9104 55.8503 47.2916 55.8503 48.9166C55.8503 50.5416 55.2816 51.9229 54.1441 53.0604C53.0066 54.1979 51.6253 54.7666 50.0003 54.7666ZM50.0003 65.1666C44.7281 65.1666 39.9253 63.6951 35.592 60.752C31.2587 57.809 28.117 53.8638 26.167 48.9166C28.117 43.9694 31.2587 40.0243 35.592 37.0812C39.9253 34.1382 44.7281 32.6666 50.0003 32.6666C55.2725 32.6666 60.0753 34.1382 64.4087 37.0812C68.742 40.0243 71.8837 43.9694 73.8337 48.9166C71.8837 53.8638 68.742 57.809 64.4087 60.752C60.0753 63.6951 55.2725 65.1666 50.0003 65.1666ZM50.0003 60.8333C54.0809 60.8333 57.8274 59.759 61.2399 57.6104C64.6524 55.4618 67.2614 52.5638 69.067 48.9166C67.2614 45.2694 64.6524 42.3715 61.2399 40.2229C57.8274 38.0743 54.0809 37 50.0003 37C45.9198 37 42.1732 38.0743 38.7607 40.2229C35.3482 42.3715 32.7392 45.2694 30.9337 48.9166C32.7392 52.5638 35.3482 55.4618 38.7607 57.6104C42.1732 59.759 45.9198 60.8333 50.0003 60.8333Z" fill="black"/>
</svg>
